<svg xmlns="http://www.w3.org/2000/svg" xml:space="preserve" id="Calque_1" x="0" y="0" style="enable-background:new 0 0 1920 1080" version="1.1" viewBox="720.39 513.84 501.71 87.36"><style>.st0{fill:#17b389}</style><path d="M720.39 573.84V541.2c0-17.64 9.84-27.12 26.64-27.12 16.2 0 25.08 9.48 25.68 27.12h-17.04c-.36-7.56-2.76-10.68-8.64-10.68-5.76 0-8.88 3.12-8.88 10.68v32.64c0 7.56 3 10.68 9 10.68 6.24 0 9.24-3.12 9.24-10.68v-6H746.3v-15.12h26.88v21.12c-.48 17.64-9.84 27.12-26.28 27.12-16.67 0-26.51-9.48-26.51-27.12zM815.9 585.6h-17.76l-2.76 13.92h-17.64l20.16-84h18.24l20.16 84h-17.64l-2.76-13.92zm-3.36-16.2-1.92-9.6c-1.08-6-2.52-16.2-3.36-23.04h-.48c-.84 6.84-2.16 17.04-3.36 23.04l-1.92 9.6h11.04zM844.1 515.52h17.04v84H844.1v-84zM894.86 575.04h17.52c0 6.72 3.36 9.6 8.76 9.6 5.64 0 8.4-3.24 8.4-7.44 0-13.92-32.88-15.6-32.88-41.16 0-12.84 9-22.2 24.48-22.2s24.84 9.24 24.84 24.72h-17.52c0-5.52-2.52-8.28-7.44-8.28-4.44 0-7.08 2.4-7.08 6.24 0 13.2 33.36 14.04 33.36 40.8 0 13.8-9.72 23.88-26.4 23.88-15.96 0-26.04-9.24-26.04-26.16zM987.86 585.6H970.1l-2.76 13.92H949.7l20.16-84h18.24l20.16 84h-17.64l-2.76-13.92zm-3.36-16.2-1.92-9.6c-1.08-6-2.52-16.2-3.36-23.04h-.48c-.84 6.84-2.16 17.04-3.36 23.04l-1.92 9.6h11.04zM1004.9 515.52h17.64l7.56 39.72c1.2 6.12 2.64 16.44 3.48 23.4h.48c.84-6.96 2.28-17.28 3.48-23.4l7.56-39.72h17.64l-19.92 84h-18l-19.92-84zM1068.14 572.28v-29.52c0-18 10.2-28.68 27.24-28.68s27.24 10.68 27.24 28.68v29.52c0 18-10.2 28.68-27.24 28.68s-27.24-10.68-27.24-28.68zm36.84 0v-29.52c0-7.92-3.24-12.12-9.6-12.12-6.36 0-9.6 4.2-9.6 12.12v29.52c0 7.92 3.24 12.12 9.6 12.12 6.36 0 9.6-4.2 9.6-12.12zM1135.1 515.52h17.04v84h-17.04v-84zM1190.06 571.32h-6v28.2h-17.04v-84h24.36c16.68 0 26.52 10.32 26.52 27.96 0 11.4-4.2 19.8-11.64 24.24l15.84 31.8h-18.6l-13.44-28.2zm-6-16.2h7.08c6 0 9.24-4.08 9.24-11.64 0-7.68-3.24-11.76-9.24-11.76h-7.08v23.4z" class="st0"/></svg>