<svg xmlns="http://www.w3.org/2000/svg" id="Calque_2" data-name="Calque 2" viewBox="0 0 125.99 253.41"><defs><style>.cls-3{fill:#7a6d31}.cls-4{fill:#7467ef}</style></defs><g id="Calque_1-2" data-name="Calque 1"><path d="M0 225.97h125.99v27.45H0z" class="cls-4"/><path d="M6.6 209.17h112.79v17.58H6.6zM6.6 80.57h112.79v17.58H6.6z" class="cls-4"/><path d="M12.22 98.41h15.97V209.5H12.22zM39.8 98.41h15.97V209.5H39.8zM69.71 98.41h15.97V209.5H69.71zM98.45 98.41h15.97V209.5H98.45z" class="cls-3"/><path d="M14.83 81.16s4.44-44.44 48.36-44.7c44.7-.27 48.36 45.48 48.36 45.48l-96.71-.78Z" class="cls-4"/><path d="M63.19.13v38.95" style="fill:none;stroke:#7467ef;stroke-miterlimit:10;stroke-width:7px"/><path d="M65.8.26 121.99 0l-15.94 14.38 17.77 9.67H65.54L65.8.26z" style="fill:#ff7c54"/></g></svg>