<svg xmlns="http://www.w3.org/2000/svg" data-name="Calque 2" viewBox="0 0 169.31 151.13"><path d="M54.04 42.34c-.52-2.35-4.25-34.6-4.25-34.6l26.73 23.62L98.74 0l7.84 36.59 38.16-20.91-12.29 33.98 36.86 3.4-31.1 21.43 25.88 24.05-30.84 2.35 8.63 35.29-27.71-17.51s-7.84 33.98-8.36 32.41c-.52-1.57-13.33-25.35-13.33-25.35l-19.34 23.79-8.89-27.45-29.8 19.6 5.49-31.37-38.68 1.57 28.56-28.1L0 61.62l33.72-3.92s-12.35-33.39-11.3-32.87c1.05.52 31.63 17.51 31.63 17.51Z" data-name="Calque 1" style="fill:#fff"/></svg>