<svg xmlns="http://www.w3.org/2000/svg" id="Calque_2" data-name="Calque 2" viewBox="0 0 310.99 137.64"><defs><style>.cls-2{fill:#ff7c54}</style></defs><g id="Calque_1-2" data-name="Calque 1"><path d="m166.27 67.73 9.65 13.42 13.24 14.26 16.44 7.46 7.04-1.38c6.57-21.24 13.14-42.48 19.72-63.72 1.5-4.85 3.02-9.84 2.72-14.91-.3-5.07-2.81-10.33-7.42-12.47-4.22-1.96-9.34-.91-13.3 1.53-3.96 2.44-7 6.09-9.96 9.67-12.72 15.38-25.43 30.76-38.13 46.14M285.18 100.9l14.27 1.47c2.64.27 5.36.57 7.68 1.68 2.33 1.11 4.18 3.28 3.82 5.47-.28 1.72-1.85 3.11-3.68 3.89-1.83.78-3.91 1.05-5.95 1.31L284 116.94" class="cls-2"/><path d="M216.35 100.74c-14.78-.17-25.62-7.55-35.21-18.8s-15.91-24.84-22.62-38.01c-6.7-13.17-14.12-26.39-25.27-36.1-6.25-5.45-14.88-9.81-22.64-6.9-5.86 2.2-9.67 8.16-10.86 14.31-1.19 6.14-.18 12.48 1.12 18.61 5 23.67 26.27 68.77 26.28 69.67-31.41-.9-63.17-.37-94.58-1.27-4.97-.14-10-.28-14.85.78s-9.6 3.46-12.51 7.49l1.53-2.13c-5.5 2.57-7.93 9.69-6.19 15.5s6.9 10.16 12.63 12.14c5.73 1.98 11.99 1.88 18 1.07 19.8-2.68 38.31-12.74 58.28-13.28 19.23-.53 37.49 7.81 56.42 11.25 47.1 8.54 91.43-13.32 139.19-16.64 0 0 6.59-1.39 6.29-11.22-.11-3.43-3.14-6.31-6.31-7.64-2.87-1.21-6.1-1.12-9.21-1-19.83.71-39.66 1.44-59.49 2.17" style="fill:#fff"/><path d="M279.56 108.99c.1.02.21.05.31.07.2.06.4.07.6.03.2-.01.39-.07.56-.18.17-.09.32-.22.42-.39.13-.14.22-.31.27-.51.02-.13.04-.27.05-.4 0-.27-.07-.52-.2-.76-.08-.1-.16-.2-.23-.3-.19-.19-.41-.31-.66-.39-.1-.02-.21-.05-.31-.07-.2-.06-.4-.07-.6-.03-.2.01-.39.07-.56.18-.17.09-.32.22-.42.39-.13.14-.22.31-.27.51-.02.13-.04.27-.05.4 0 .27.07.52.2.76.08.1.16.2.23.3.18.19.4.32.66.39Z" class="cls-2"/></g></svg>