<svg xmlns="http://www.w3.org/2000/svg" id="Calque_2" data-name="Calque 2" viewBox="0 0 261.84 367.17"><defs><style>.cls-1{fill:#743150}.cls-2{fill:#7a6d31}</style></defs><g id="Calque_1-2" data-name="Calque 1"><path d="m70.5 147.74 125.26-1.35 6.3 220.78-159.5-4.05L70.5 147.74zM71.46 135.6l124.72 8.92s-22.17-27.71-63.49-30.6c-37.24-2.6-61.23 21.68-61.23 21.68Z" class="cls-1"/><circle cx="139.15" cy="106.96" r="14.19" class="cls-2"/><path d="M194.7 205.64s47.76 1.8 48.44 42.13c.57 34.09-30.41 51.14-43.71 52.94.68 25.46.68 30.41.68 30.41s62-17.47 61.73-81.33c-.23-52.94-39.43-67.81-49.56-71.19-10.14-3.38-18.7-3.6-18.7-3.6l1.12 30.64Z" class="cls-2"/><path d="M66.46 258.54c1.03-19.12 7.13-37.58 7.41-56.74.02-1.36.37-2.51.95-3.44-15.27-26.22-68.7-72.25-62.56-55.23 4.51 12.5 7.1 22.19 7.1 22.19S-8.8 158 2.8 168.7c17.1 15.77 19.26 15.43 28.05 32.33 8.6 16.54 5.24 50.88 36.49 60.88-.61-.97-.95-2.1-.88-3.37Z" class="cls-1"/><path d="M46.04 136.47c-4.06-5.88-6.61-13.03-5.34-20.07-10.07-2.39-18.68-10.2-22.03-20-3.35-9.79-1.32-21.24 5.19-29.29-6.02-10.43-10.14-22.34-9.37-34.36.76-12.02 7.04-24.08 17.68-29.73C42.81-2.63 57.68-.3 64.55 9.6c5.56 8 5.12 18.67 3.46 28.27 3.87-2.75 9.61-1.45 12.95 1.92s4.68 8.26 5.09 12.99c1.09 12.84-4.14 26.07-13.72 34.7 3.85-1.62 8.45 1.13 10.2 4.91s1.35 8.2.58 12.3c-2.3 12.17-6.69 21.1-14.42 30.77 2.22-.29 23.44 11.99 21.2 11.95-3.39-.06-19.3.19-21.73.19-2.23.01-16.46-2.93-22.12-11.13Z" style="fill:#7467ef"/></g></svg>