<svg xmlns="http://www.w3.org/2000/svg" xmlns:xlink="http://www.w3.org/1999/xlink" xml:space="preserve" id="Calque_1" x="0" y="0" style="enable-background:new 0 0 1920 1080" version="1.1" viewBox="0 0 1920 1080"><style>.st0{fill:#e8bc3f}</style><path d="M765.67 645.79c23.02.91 71.77 4.83 71.77 4.83l10.6-17.11-13.88-39.66-17.75-4.79-54.01 47.95c-3.28 3.1-1.23 8.61 3.27 8.78z" class="st0"/><circle cx="806.45" cy="626.84" r="6.69"/><path d="m760.8 642.45 44.47-15.2" style="fill:none;stroke:#000;stroke-width:4;stroke-miterlimit:10"/><defs><filter id="Adobe_OpacityMaskFilter" width="348.72" height="153.39" x="834.8" y="480.13" filterUnits="userSpaceOnUse"><feColorMatrix values="1 0 0 0 0 0 1 0 0 0 0 0 1 0 0 0 0 0 1 0"/></filter></defs><mask id="SVGID_1_" width="348.72" height="153.39" x="834.8" y="480.13" maskUnits="userSpaceOnUse"><g style="filter:url(#Adobe_OpacityMaskFilter)"><image xlink:href="97008463.png" width="518" height="481" style="overflow:visible" transform="translate(732 249)"/></g></mask><g style="mask:url(#SVGID_1_)"><path d="M905.33 496.14h40.94v178.35h-40.94z" style="fill:#743150" transform="scale(-1) rotate(71.132 818.556 -1294.711)"/><path d="M1064.62 433.86h40.94v194.05h-40.94z" style="fill:#17b389" transform="scale(-1) rotate(71.132 742.435 -1517.466)"/></g><path d="m1183.52 518.87 43.45-33.78c2.05-1.6.93-4.88-1.67-4.89l-55.02-.07 13.24 38.74z" style="fill:#eac4e9"/><path d="m1218.59 491.67 8.53-6.63c2.05-1.6.93-4.88-1.67-4.89l-10.87-.01c1.15 3.91 2.45 7.76 4.01 11.53z"/></svg>