<?xml version="1.0" encoding="utf-8"?>
<!-- Generator: Adobe Illustrator 27.4.0, SVG Export Plug-In . SVG Version: 6.00 Build 0)  -->
<svg version="1.1" id="Calque_1" xmlns="http://www.w3.org/2000/svg" xmlns:xlink="http://www.w3.org/1999/xlink" x="0px" y="0px"
	 viewBox="0 0 1920 1080" style="enable-background:new 0 0 1920 1080;" xml:space="preserve">
<style type="text/css">
	.st0{fill:#743150;}
	.st1{filter:url(#Adobe_OpacityMaskFilter);}
	.st2{mask:url(#SVGID_1_);fill:#EAC4E9;}
</style>
<g>
	<rect x="922.48" y="505.14" class="st0" width="8.44" height="206.22"/>
	<rect x="974.29" y="505.14" class="st0" width="8.44" height="206.22"/>
	
		<rect x="947.76" y="657.25" transform="matrix(6.123234e-17 -1 1 6.123234e-17 268.5831 1640.2274)" class="st0" width="13.3" height="57.14"/>
	
		<rect x="946.23" y="611.03" transform="matrix(6.123234e-17 -1 1 6.123234e-17 313.2815 1592.4813)" class="st0" width="13.3" height="57.14"/>
	
		<rect x="944.71" y="564.81" transform="matrix(6.123234e-17 -1 1 6.123234e-17 357.9799 1544.7354)" class="st0" width="13.3" height="57.14"/>
	
		<rect x="945.47" y="518.58" transform="matrix(6.123234e-17 -1 1 6.123234e-17 404.9641 1499.275)" class="st0" width="13.3" height="57.14"/>
</g>
<defs>
	<filter id="Adobe_OpacityMaskFilter" filterUnits="userSpaceOnUse" x="832.48" y="368.64" width="255.35" height="113.95">
		<feColorMatrix  type="matrix" values="1 0 0 0 0  0 1 0 0 0  0 0 1 0 0  0 0 0 1 0"/>
	</filter>
</defs>
<mask maskUnits="userSpaceOnUse" x="832.48" y="368.64" width="255.35" height="113.95" id="SVGID_1_">
	<g class="st1">
		<g>
			<image style="overflow:visible;" width="1164" height="1064" xlink:href="2ED4509B.png"  transform="matrix(1 0 0 1 367 168)">
			</image>
		</g>
	</g>
</mask>
<path class="st2" d="M1083.39,439.07c5.13,15.09-7.44,30.36-28.07,34.12c-14.3,2.6-28.71-1.02-37.92-8.51
	c-6.21,9.96-21.41,17.28-39.59,17.88c-16.68,0.55-31.56-4.71-39.63-12.94c-6.62,6.7-17.38,11.06-29.54,11.06
	c-19.07,0-34.71-10.72-36.28-24.38c-22.37-1.55-39.87-15.33-39.87-32.1c0-16.9,17.77-30.76,40.39-32.14
	c4.02-12.23,19.07-21.31,37-21.31c11.3,0,21.44,3.6,28.41,9.32c8.39-6.93,21.92-11.43,37.19-11.43c16.39,0,30.79,5.18,38.98,13
	c7.75-4.72,17.66-7.56,28.48-7.56c24.8,0,44.9,14.92,44.9,33.31c0,8.29-4.1,15.87-10.85,21.71
	C1079.91,432,1082.13,435.36,1083.39,439.07z"/>
<g>
</g>
<g>
</g>
<g>
</g>
<g>
</g>
<g>
</g>
<g>
</g>
<g>
</g>
<g>
</g>
<g>
</g>
<g>
</g>
<g>
</g>
<g>
</g>
<g>
</g>
<g>
</g>
<g>
</g>
</svg>
