<?xml version="1.0" encoding="utf-8"?>
<!-- Generator: Adobe Illustrator 27.4.0, SVG Export Plug-In . SVG Version: 6.00 Build 0)  -->
<svg version="1.1" id="Calque_1" xmlns="http://www.w3.org/2000/svg" xmlns:xlink="http://www.w3.org/1999/xlink" x="0px" y="0px"
	 viewBox="0 0 1920 1080" style="enable-background:new 0 0 1920 1080;" xml:space="preserve">
<style type="text/css">
	.st0{fill:#FFFFFF;}
</style>
<path class="st0" d="M929.89,506.02c-0.52-2.35-4.25-34.6-4.25-34.6l26.73,23.62l22.22-31.37l7.84,36.59l38.16-20.91l-12.29,33.98
	l36.86,3.4l-31.1,21.43l25.88,24.05l-30.84,2.35l8.63,35.29L990,582.34c0,0-7.84,33.98-8.36,32.41s-13.33-25.35-13.33-25.35
	l-19.34,23.79l-8.89-27.45l-29.8,19.6l5.49-31.37l-38.68,1.57l28.56-28.1l-29.8-22.15l33.72-3.92c0,0-12.35-33.39-11.3-32.87
	C899.3,489.03,929.89,506.02,929.89,506.02z"/>
<g>
</g>
<g>
</g>
<g>
</g>
<g>
</g>
<g>
</g>
<g>
</g>
<g>
</g>
<g>
</g>
<g>
</g>
<g>
</g>
<g>
</g>
<g>
</g>
<g>
</g>
<g>
</g>
<g>
</g>
</svg>
