<svg xmlns="http://www.w3.org/2000/svg" id="Calque_2" data-name="Calque 2" viewBox="0 0 311.51 164.5"><defs><style>.cls-1{fill:#e8bc3f}.cls-2{fill:#17b389}</style></defs><g id="Calque_1-2" data-name="Calque 1"><path d="M0 164.5h121.03c1.46-4.67 2.17-9.99 2.34-16.35.15-5.46 1.7-6.71-.46-22.48-3.03-15.4-27.6 5.27-40.21-11.69-3.56-4.92 1.97-12.53 7.62-15.34s16.24-.92 22.52-2.17c22.51-6.57 9.97-14.59 10.49-26.65 2.42-9.67 21.84-8.82 23.37-18.64.63-11.18-15.06-12.05-22.39-16.46-12.68-7.08-8.65-22.76-14.87-34.13H0V164.5Z" class="cls-2"/><path d="M311.51 163.91H190.48c-1.46-4.67-2.17-9.99-2.34-16.35-.15-5.46-1.7-6.71.46-22.48 3.03-15.4 27.6 5.27 40.21-11.69 3.56-4.92-1.97-12.53-7.62-15.34-5.66-2.81-16.24-.92-22.52-2.17-22.51-6.57-9.98-14.59-10.49-26.65-2.42-9.67-21.84-8.82-23.37-18.64-.63-11.18 15.06-12.05 22.39-16.46 12.68-7.08 8.65-22.76 14.87-34.13h109.44v163.91ZM81.68 13.97c20.03.1 20.03 28.07 0 28.16-20.03-.1-20.03-28.07 0-28.16Z" class="cls-1"/><path d="M230.28 14.21c20.03.1 20.03 28.07 0 28.16-20.03-.1-20.03-28.07 0-28.16Z" class="cls-2"/><path d="M88.8 16.5c11.2-.25 11.2 22.97 0 22.72-11.2.25-11.2-22.97 0-22.72ZM223.84 16.5c11.2-.25 11.2 22.97 0 22.72-11.2.25-11.2-22.97 0-22.72Z"/></g></svg>