<svg xmlns="http://www.w3.org/2000/svg" id="Calque_2" data-name="Calque 2" viewBox="0 0 135.03 370.58"><defs><style>.cls-1{fill:#17b389}.cls-3{fill:#743150}</style></defs><g id="Calque_1-2" data-name="Calque 1"><path d="m61.18 63.21-45.35-7.3-1.18-15.82 18.33-.22-14.4-8.6 5.56-12.68 19.48 10.09-10.95-17.15L44.96 5l11.67 16.35L52.6 1.93 66.16 0l4.24 19.53L83.53 1.12l12.84 7.39-11.94 15.76 17.26-7.85 5.21 14.4-20.88 7.92 21.92.36-.28 12.7-46.48 11.41z" style="fill:#ff7c54"/><path d="M54.69 55h14.07v237.95H54.69z" class="cls-1"/><path d="M62.47 226.71c9.81-32.14 39.23-68.87 72.28-70.3 1.74 21.46-4.56 43.26-17.62 61.03s-32.8 31.38-55.27 38.11l.61-28.84ZM54.1 207.29C24.89 189.26 4.73 159.76 0 128.13c18.58 4.77 35.22 15.44 46.33 29.68 11.11 14.25 16.61 31.98 15.3 49.36l-7.53.12Z" class="cls-1"/><path d="M20.22 292.62h81.75v30.94H20.22z" class="cls-3"/><path d="M86.46 370.58h-50.8l-8.7-47.89h68.27l-8.77 47.89z" class="cls-3"/></g></svg>