<svg xmlns="http://www.w3.org/2000/svg" xml:space="preserve" id="Calque_1" x="0" y="0" style="enable-background:new 0 0 1920 1080" version="1.1" viewBox="686.74 267.29 501.71 507.83"><style>.st3{fill:#17b389}</style><path d="m987.09 405.34 18.12 1.17c1.8.12 4.13.69 4.19 2.32.05 1.36-1.65 2.09-3.02 2.69-5.55 2.41-11.29 4.01-16.94 6.01" style="fill:#fff"/><path d="M1091.11 558.88c-5.44-20.75-17.31-39.77-33.57-53.77-29.81-25.67-69.01-30.87-99.85-55.31l-.14-.29c-3.43-3.91-2.12-10.36 1.47-14.12s8.77-5.46 13.77-6.89c5-1.43 10.21-2.82 14.18-6.17 3.97-3.35 6.27-9.34 3.76-13.88-3.09-5.6-11.12-5.85-17.25-4.03-6.45 1.92-12.35 5.26-18.46 8.08-6.11 2.82-12.66 5.16-19.38 4.85-6.72-.31-10.97-2.37-15.69-7.16-1.6-1.62-2.93-3.77-6.44-9.84-3.51-6.07-5.39-12.92-7.65-19.56-9.82-28.91-27.42-55.12-50.47-75.15-21.56-18.74-47.84-32-75.7-38.28-2.32-.52-4.23 1.86-3.22 4.01 4.51 9.55 13.47 30.09 13.86 43.16.53 17.49-1.42 37.22 9 51.29 9.25 12.49 24.2 19.08 38.08 26.07 13.88 6.99 28.23 15.91 33.97 30.35 6.45 16.23-1.38 36.76-17 44.57-4.19 2.09-8.74 3.33-13.1 5.05s-8.64 4.05-11.5 7.76c-2.86 3.71-3.97 9.06-1.71 13.16 2.26 4.1 8.41 5.86 11.93 2.78-2.42 3.86-2.78 8.59.71 12.27 3.43 3.61 7.96 3.44 12.06 1.47-4.41 3.61-1.04 9.79 1.84 11.14 3.6 1.68 8.06 1.14 11.21-1.29 3.14-2.43 5.22-5.94 7.32-9.31 2.1-3.37 7.31-12.74 7.31-12.74 5.18-11.78 13.37-20.27 26.23-20.87l4.52-.16c12.16-.31 18.8 2.34 27.03 9.97 8.23 7.62 13.09 18.13 17.45 28.46 4.36 10.33 8.56 21 15.89 29.49 11.21 13.01 28.23 19.26 44.73 24.02 16.5 4.76 33.73 8.77 47.64 18.84 9.75 7.05 17.39 16.94 21.87 28.11.9 2.24 4.14 2.07 4.79-.26 5.08-18.11 5.28-37.6.51-55.82zm-114.33-143.9c.46-1.65 1.98-2.03 1.98-2.03 1.73-.58 3.82.76 4.03 2.57.21 1.81-1.52 3.59-3.34 3.43s-3.17-2.21-2.67-3.97z" style="fill:#ff7c54"/><path d="M686.74 747.76v-32.64c0-17.64 9.84-27.12 26.64-27.12 16.2 0 25.08 9.48 25.68 27.12h-17.04c-.36-7.56-2.76-10.68-8.64-10.68-5.76 0-8.88 3.12-8.88 10.68v32.64c0 7.56 3 10.68 9 10.68 6.24 0 9.24-3.12 9.24-10.68v-6h-10.08v-15.12h26.88v21.12c-.48 17.64-9.84 27.12-26.28 27.12-16.68 0-26.52-9.48-26.52-27.12zM782.26 759.52H764.5l-2.76 13.92H744.1l20.16-84h18.24l20.16 84h-17.64l-2.76-13.92zm-3.36-16.2-1.92-9.6c-1.08-6-2.52-16.2-3.36-23.04h-.48c-.84 6.84-2.16 17.04-3.36 23.04l-1.92 9.6h11.04zM810.46 689.45h17.04v84h-17.04v-84zM861.22 748.96h17.52c0 6.72 3.36 9.6 8.76 9.6 5.64 0 8.4-3.24 8.4-7.44 0-13.92-32.88-15.6-32.88-41.16 0-12.84 9-22.2 24.48-22.2s24.84 9.24 24.84 24.72h-17.52c0-5.52-2.52-8.28-7.44-8.28-4.44 0-7.08 2.4-7.08 6.24 0 13.2 33.36 14.04 33.36 40.8 0 13.8-9.72 23.88-26.4 23.88-15.96 0-26.04-9.24-26.04-26.16zM954.22 759.52h-17.76l-2.76 13.92h-17.64l20.16-84h18.24l20.16 84h-17.64l-2.76-13.92zm-3.36-16.2-1.92-9.6c-1.08-6-2.52-16.2-3.36-23.04h-.48c-.84 6.84-2.16 17.04-3.36 23.04l-1.92 9.6h11.04zM971.26 689.45h17.64l7.56 39.72c1.2 6.12 2.64 16.44 3.48 23.4h.48c.84-6.96 2.28-17.28 3.48-23.4l7.56-39.72h17.64l-19.92 84h-18l-19.92-84zM1034.5 746.2v-29.52c0-18 10.2-28.68 27.24-28.68s27.24 10.68 27.24 28.68v29.52c0 18-10.2 28.68-27.24 28.68s-27.24-10.68-27.24-28.68zm36.83 0v-29.52c0-7.92-3.24-12.12-9.6-12.12-6.36 0-9.6 4.2-9.6 12.12v29.52c0 7.92 3.24 12.12 9.6 12.12 6.36 0 9.6-4.2 9.6-12.12zM1101.46 689.45h17.04v84h-17.04v-84zM1156.41 745.24h-6v28.2h-17.04v-84h24.36c16.68 0 26.52 10.32 26.52 27.96 0 11.4-4.2 19.8-11.64 24.24l15.84 31.8h-18.6l-13.44-28.2zm-6-16.2h7.08c6 0 9.24-4.08 9.24-11.64 0-7.68-3.24-11.76-9.24-11.76h-7.08v23.4z" class="st3"/></svg>