<svg xmlns="http://www.w3.org/2000/svg" xml:space="preserve" id="Calque_1" x="0" y="0" style="enable-background:new 0 0 1920 1080" version="1.1" viewBox="897.51 409.92 125.99 256.79"><style>.st0{fill:#7467ef}.st1{fill:#7a6d31}</style><path d="M897.51 639.26h125.99v27.45H897.51z" class="st0"/><path d="M904.11 622.47h112.79v17.58H904.11zM904.11 493.87h112.79v17.58H904.11z" class="st0"/><path d="M909.73 511.71h15.97V622.8h-15.97zM937.31 511.71h15.97V622.8h-15.97zM967.21 511.71h15.97V622.8h-15.97zM995.96 511.71h15.97V622.8h-15.97z" class="st1"/><path d="M912.34 494.45s4.44-44.44 48.36-44.7c44.7-.27 48.36 45.48 48.36 45.48l-96.72-.78z" class="st0"/><path d="M960.7 413.42v38.95" style="fill:none;stroke:#7467ef;stroke-width:7;stroke-miterlimit:10"/><path d="m960.83 413.56 56.19-.27-15.94 14.38 17.77 9.67h-58.28z" style="fill:#ff7c54"/></svg>