<svg xmlns="http://www.w3.org/2000/svg" data-name="Calque 2" viewBox="0 0 468.03 170.54"><g data-name="Calque 1"><path d="M5.52 165.71c23.02.91 71.77 4.83 71.77 4.83l10.6-17.11-13.88-39.66-17.75-4.79-54.01 47.95c-3.28 3.1-1.23 8.61 3.27 8.78Z" style="fill:#e8bc3f"/><circle cx="46.3" cy="146.76" r="6.69"/><path d="m.65 162.37 44.47-15.2" style="fill:none;stroke:#000;stroke-miterlimit:10;stroke-width:4px"/><path d="M76.47 84.72h178.36v40.94H76.47z" style="fill:#743150" transform="rotate(-18.87 165.624 105.192)"/><path d="M227.9 30.28h194.06v40.94H227.9z" style="fill:#17b389" transform="rotate(-18.87 324.879 50.74)"/><path d="m423.37 38.79 43.45-33.78c2.05-1.6.93-4.88-1.67-4.89L410.13.05l13.24 38.74Z" style="fill:#eac4e9"/><path d="m458.44 11.59 8.53-6.63c2.05-1.6.93-4.88-1.67-4.89h-10.87c1.15 3.9 2.45 7.75 4.01 11.52Z"/></g></svg>